# xmcd CD database file
#
# Track frame offsets:
#	150
#	24472
#	45831
#	71093
#	87558
#	102949
#	117139
#	129647
#
# Disc length: 2108 seconds
#
# Revision: 1
# Processed by: cddbd v1.5.1PL0 Copyright (c) Steve Scherf et al.
# Submitted via: CDex 1.51
#
DISCID=64083a08
DTITLE=Myers Brothers Blues Band - Straight from the Woods
DYEAR=2005
DGENRE=Blues
TTITLE0=Let Me Be Your Man
TTITLE1=The Moss-Man
TTITLE2=Straight from the Woods
TTITLE3=Going Down to Clarksdale
TTITLE4=I Want to Know
TTITLE5=Come on Home
TTITLE6=Hunny-Brown
TTITLE7=Call Me the Rocker
EXTD=YEAR: 2005
EXTT0=
EXTT1=
EXTT2=
EXTT3=
EXTT4=
EXTT5=
EXTT6=
EXTT7=
PLAYORDER=
